<svg height="574" width="720" xmlns="http://www.w3.org/2000/svg">
<rect height="574" fill="#555" width="720"></rect>
<text fill="#7f7" font-family="Courier New" font-size="12" xml:space="preserve">
<tspan x="10" y="26">26 megabytes installed</tspan>
<tspan x="10" y="42"></tspan>
<tspan x="10" y="58">node_modules</tspan>
<tspan x="10" y="74">└─┬ rabbot@1.1.0 </tspan>
<tspan x="10" y="90">  ├─┬ amqplib@0.5.1 </tspan>
<tspan x="10" y="106">  │ ├── bitsyntax@0.0.4 </tspan>
<tspan x="10" y="122">  │ ├── bluebird@3.5.0 </tspan>
<tspan x="10" y="138">  │ ├── buffer-more-ints@0.0.2 </tspan>
<tspan x="10" y="154">  │ └─┬ readable-stream@1.1.14 </tspan>
<tspan x="10" y="170">  │   ├── core-util-is@1.0.2 </tspan>
<tspan x="10" y="186">  │   ├── inherits@2.0.3 </tspan>
<tspan x="10" y="202">  │   ├── isarray@0.0.1 </tspan>
<tspan x="10" y="218">  │   └── string_decoder@0.10.31 </tspan>
<tspan x="10" y="234">  ├─┬ debug@2.6.4 </tspan>
<tspan x="10" y="250">  │ └── ms@0.7.3 </tspan>
<tspan x="10" y="266">  ├── lodash@4.17.4 </tspan>
<tspan x="10" y="282">  ├─┬ machina@2.0.0 </tspan>
<tspan x="10" y="298">  │ └── lodash@3.10.1 </tspan>
<tspan x="10" y="314">  ├─┬ monologue.js@0.3.5 </tspan>
<tspan x="10" y="330">  │ ├── lodash@3.10.1 </tspan>
<tspan x="10" y="346">  │ └─┬ riveter@0.2.0 </tspan>
<tspan x="10" y="362">  │   └── lodash@2.4.2 </tspan>
<tspan x="10" y="378">  ├── postal@2.0.5 </tspan>
<tspan x="10" y="394">  ├── uuid@3.0.1 </tspan>
<tspan x="10" y="410">  ├── when@3.7.8 </tspan>
<tspan x="10" y="426">  └─┬ whistlepunk@0.3.3 </tspan>
<tspan x="10" y="442">    ├── colors@1.0.3 </tspan>
<tspan x="10" y="458">    ├─┬ debug@2.2.0 </tspan>
<tspan x="10" y="474">    │ └── ms@0.7.1 </tspan>
<tspan x="10" y="490">    ├── lodash@3.10.1 </tspan>
<tspan x="10" y="506">    ├── machina@1.1.2 </tspan>
<tspan x="10" y="522">    ├── moment@2.10.2 </tspan>
<tspan x="10" y="538">    └─┬ postal@1.0.11 </tspan>
<tspan x="10" y="554">      └── lodash@4.17.4</tspan>
</text>
</svg>
